<svg width="40" height="40" viewBox="0 0 40 40" fill="none" xmlns="http://www.w3.org/2000/svg">
<g clip-path="url(#clip0)">
<path fill-rule="evenodd" clip-rule="evenodd" d="M31.2614 14.9821C30.9608 14.3629 31.2208 13.6175 31.8423 13.3178C32.4616 13.0175 33.2118 13.2762 33.5119 13.8968C34.499 15.928 34.9996 18.1177 34.9996 20.4026C34.9996 28.6481 28.2689 35.3571 19.9969 35.3571C11.7248 35.3571 4.99414 28.6481 4.99414 20.4026C4.99414 12.1571 11.7248 5.44812 19.9969 5.44812C23.3755 5.44812 26.6845 6.59514 29.314 8.67834C29.8549 9.10642 29.9449 9.89077 29.5149 10.4293C29.0848 10.9681 28.297 11.0579 27.7583 10.6292C25.5371 8.87032 22.8535 7.94053 19.9969 7.94053C13.1032 7.94053 7.49459 13.5311 7.49459 20.4026C7.49459 27.2741 13.1032 32.8647 19.9969 32.8647C26.8905 32.8647 32.4991 27.2741 32.4991 20.4026C32.4991 18.4965 32.0828 16.6734 31.2614 14.9821ZM17.6924 13.1078C17.6924 12.4199 18.2525 11.8616 18.9427 11.8616C19.6328 11.8616 20.1929 12.4199 20.1929 13.1078V20.5851H25.1938C25.8839 20.5851 26.444 21.1434 26.444 21.8313C26.444 22.5192 25.8839 23.0775 25.1938 23.0775H18.9427C18.2525 23.0775 17.6924 22.5192 17.6924 21.8313V13.1078Z" fill="url(#paint0_linear)"/>
</g>
<defs>
<linearGradient id="paint0_linear" x1="12.3484" y1="-1.58928" x2="40.7924" y2="3.59903" gradientUnits="userSpaceOnUse">
<stop stop-color="#FB912F"/>
<stop offset="1" stop-color="#DC5126"/>
</linearGradient>
<clipPath id="clip0">
<rect width="30.0054" height="29.909" fill="white" transform="translate(4.99414 5.44812)"/>
</clipPath>
</defs>
</svg>
