<svg width="40" height="40" viewBox="0 0 40 40" fill="none" xmlns="http://www.w3.org/2000/svg">
<path d="M18.8725 11C18.2925 11 18.2925 11.8402 18.8725 11.8472C23.3722 11.8794 27.078 14.7949 27.1187 20.1427C27.1187 20.7071 28.0075 20.7001 28 20.1357H27.9984C27.9502 14.3734 23.904 11.0322 18.8725 11Z" fill="#6F3FAA"/>
<path d="M25.0038 19.0766C24.9904 19.6246 25.8657 19.6508 25.8732 19.0958C25.946 15.9713 23.867 13.3976 19.9602 13.1263C19.3881 13.0877 19.3286 13.9209 19.8993 13.9594C23.2874 14.1976 25.0722 16.3403 25.0038 19.0766V19.0766Z" fill="#6F3FAA"/>
<path d="M23.6957 23.0352C23.0207 22.632 22.3334 22.8829 22.0492 23.279L21.4549 24.0727C21.1529 24.4759 20.5886 24.4223 20.5886 24.4223C16.4705 23.2988 15.3692 18.8527 15.3692 18.8527C15.3692 18.8527 15.3186 18.2508 15.6957 17.9279L16.439 17.2936C16.8107 16.9891 17.0457 16.2561 16.6672 15.5357C15.6561 13.651 14.977 13.0012 14.6314 12.5021C14.2679 12.0327 13.7214 11.927 13.153 12.2442H13.1407C11.9588 12.9575 10.6649 14.2924 11.0789 15.6668C11.7853 17.116 13.0833 21.7355 17.2206 25.2258C19.1649 26.8765 22.2419 28.5681 23.5481 28.9586L23.5604 28.9783C24.8475 29.421 26.0991 28.0339 26.7672 26.7778V26.768C27.0637 26.1604 26.9653 25.5853 26.5322 25.2089C25.7643 24.4364 24.6057 23.5835 23.6957 23.0352Z" fill="#6F3FAA"/>
<path d="M20.9373 16.0274C22.2479 16.0993 22.8834 16.7436 22.9516 18.067C22.9762 18.5843 23.774 18.5484 23.7494 18.0311C23.6622 16.3034 22.7048 15.3407 20.9809 15.2508C20.4559 15.2213 20.4068 15.9979 20.9373 16.0274V16.0274Z" fill="#6F3FAA"/>
<path d="M20 5C11.7287 5 5 11.7287 5 20C5 22.8217 5.78404 25.561 7.27135 27.9396C6.67885 30.0154 5.60865 33.9419 5.59712 33.9829C5.54173 34.186 5.60115 34.4029 5.75288 34.5488C5.90462 34.6948 6.12385 34.7467 6.32346 34.6856L12.2692 32.8567C14.5983 34.2598 17.2654 35 20 35C28.2713 35 35 28.2713 35 20C35 11.7287 28.2713 5 20 5ZM20 33.8462C17.3929 33.8462 14.8533 33.1175 12.6552 31.7398C12.5623 31.6815 12.4556 31.6521 12.3488 31.6521C12.2917 31.6521 12.2346 31.6608 12.1792 31.6775L6.9875 33.2756C7.36885 31.8835 8.05423 29.3935 8.45173 28.0083C8.49788 27.8479 8.47192 27.6748 8.38135 27.5346C6.92404 25.2921 6.15385 22.6867 6.15385 20C6.15385 12.3656 12.3656 6.15385 20 6.15385C27.6344 6.15385 33.8462 12.3656 33.8462 20C33.8462 27.6344 27.6344 33.8462 20 33.8462Z" fill="#6F3FAA"/>
</svg>
