<svg width="30" height="30" viewBox="0 0 30 30" fill="none" xmlns="http://www.w3.org/2000/svg">
<path d="M15.0003 3.01157C10.0851 3.01157 5.41766 2.57468 3.63487 7.14647C2.89848 9.0347 3.00542 11.487 3.00542 14.9983C3.00542 18.0795 2.9066 20.9755 3.63487 22.8488C5.4136 27.4233 10.119 26.9851 14.9976 26.9851C19.7043 26.9851 24.5572 27.4747 26.3617 22.8488C27.0994 20.9416 26.9911 18.5259 26.9911 14.9983C26.9911 10.3156 27.2497 7.29255 24.9769 5.02288C22.6756 2.72346 19.5635 3.01157 14.9949 3.01157H15.0003ZM13.9255 5.17167C24.1782 5.15544 25.4831 4.01655 24.763 19.8379C24.5071 25.4336 20.2431 24.8195 15.0016 24.8195C5.44473 24.8195 5.16994 24.5463 5.16994 14.9929C5.16994 5.32857 5.92799 5.17708 13.9255 5.16897V5.17167ZM21.4032 7.16135C20.6086 7.16135 19.9642 7.80518 19.9642 8.59916C19.9642 9.39314 20.6086 10.037 21.4032 10.037C22.1978 10.037 22.8421 9.39314 22.8421 8.59916C22.8421 7.80518 22.1978 7.16135 21.4032 7.16135ZM15.0003 8.84263C11.5985 8.84263 8.84109 11.5992 8.84109 14.9983C8.84109 18.3974 11.5985 21.1526 15.0003 21.1526C18.4021 21.1526 21.1581 18.3974 21.1581 14.9983C21.1581 11.5992 18.4021 8.84263 15.0003 8.84263ZM15.0003 11.0027C20.2864 11.0027 20.2932 18.9939 15.0003 18.9939C9.71557 18.9939 9.70744 11.0027 15.0003 11.0027Z" fill="url(#paint0_linear)"/>
<defs>
<linearGradient id="paint0_linear" x1="4.6114" y1="25.4364" x2="26.849" y2="6.18621" gradientUnits="userSpaceOnUse">
<stop stop-color="#FFDD55"/>
<stop offset="0.5" stop-color="#FF543E"/>
<stop offset="1" stop-color="#C837AB"/>
</linearGradient>
</defs>
</svg>
