<svg width="35" height="35" viewBox="0 0 35 35" fill="none" xmlns="http://www.w3.org/2000/svg">
<path d="M17.9269 17.721C21.4455 17.721 24.3074 14.8685 24.3074 11.3603C24.3074 7.85248 21.4455 5 17.9269 5C14.4082 5 11.5464 7.85248 11.5464 11.3603C11.5464 14.8685 14.4082 17.721 17.9269 17.721ZM17.9269 8.18002C19.6863 8.18002 21.1171 9.60644 21.1171 11.3603C21.1171 13.1142 19.6863 14.5408 17.9269 14.5408C16.1675 14.5408 14.7365 13.1142 14.7365 11.3603C14.7365 9.60644 16.1675 8.18002 17.9269 8.18002Z" fill="#F77C00"/>
<path d="M26.3874 17.5444C25.7637 16.9225 24.7554 16.9225 24.1319 17.5444C20.7119 20.9536 15.1448 20.9536 11.7234 17.5444C11.0999 16.9225 10.0915 16.9225 9.46778 17.5444C8.84407 18.166 8.84407 19.1713 9.46778 19.7946C11.4521 21.7725 13.9675 22.9002 16.5613 23.1939L12.0136 27.7276C11.3901 28.3494 11.3901 29.3542 12.0136 29.976C12.6374 30.5979 13.6453 30.5979 14.2691 29.976L17.9269 26.3299L21.5846 29.9759C21.8958 30.286 22.3038 30.4422 22.7122 30.4422C23.1207 30.4422 23.5288 30.286 23.8398 29.9759C24.4636 29.3542 24.4636 28.3493 23.8398 27.7275L19.2922 23.1939C21.8859 22.9002 24.4014 21.7725 26.3857 19.7945C27.0095 19.1725 27.0095 18.166 26.3874 17.5444Z" fill="#F77C00"/>
</svg>
