<svg width="21" height="21" viewBox="0 0 21 21" fill="none" xmlns="http://www.w3.org/2000/svg">
<g clip-path="url(#clip0)">
<path fill-rule="evenodd" clip-rule="evenodd" d="M18.3781 6.67052C18.1678 6.23733 18.3497 5.7158 18.7845 5.50612C19.2178 5.29601 19.7427 5.47695 19.9527 5.91121C20.6433 7.33234 20.9935 8.86437 20.9935 10.463C20.9935 16.232 16.2844 20.9261 10.4968 20.9261C4.70916 20.9261 0 16.232 0 10.463C0 4.69402 4.70916 0 10.4968 0C12.8606 0 15.1758 0.802523 17.0156 2.26005C17.394 2.55956 17.457 3.10834 17.1561 3.48512C16.8552 3.86212 16.304 3.92491 15.9271 3.62498C14.3731 2.39437 12.4955 1.74384 10.4968 1.74384C5.67358 1.74384 1.74946 5.65534 1.74946 10.463C1.74946 15.2707 5.67358 19.1822 10.4968 19.1822C15.32 19.1822 19.2441 15.2707 19.2441 10.463C19.2441 9.12939 18.9528 7.85387 18.3781 6.67052ZM9.62189 4.35953C9.62189 3.87823 10.0138 3.48761 10.4966 3.48761C10.9795 3.48761 11.3714 3.87823 11.3714 4.35953V9.59105H14.8703C15.3531 9.59105 15.745 9.98166 15.745 10.463C15.745 10.9443 15.3531 11.3349 14.8703 11.3349H10.4966C10.0138 11.3349 9.62189 10.9443 9.62189 10.463V4.35953Z" fill="url(#paint0_linear)"/>
</g>
<defs>
<linearGradient id="paint0_linear" x1="5.14548" y1="-4.92378" x2="25.0465" y2="-1.29373" gradientUnits="userSpaceOnUse">
<stop stop-color="#FB912F"/>
<stop offset="1" stop-color="#DC5126"/>
</linearGradient>
<clipPath id="clip0">
<rect width="20.9935" height="20.9261" fill="white"/>
</clipPath>
</defs>
</svg>
