<svg width="30" height="30" viewBox="0 0 30 30" fill="none" xmlns="http://www.w3.org/2000/svg">
<path d="M21.918 19.8238H20.6L20.6064 19.0906C20.6064 18.7644 20.8855 18.4983 21.2271 18.4983H21.3115C21.6532 18.4983 21.9335 18.7645 21.9335 19.0906L21.918 19.8238ZM16.9764 18.2524C16.6432 18.2524 16.3697 18.4679 16.3697 18.7313V22.2973C16.3697 22.5607 16.6432 22.7749 16.9764 22.7749C17.3122 22.7749 17.5858 22.5607 17.5858 22.2973V18.7309C17.5858 18.4679 17.3122 18.2524 16.9764 18.2524ZM25 16.2581V23.0414C25 24.6688 23.5278 26 21.7274 26H8.27257C6.47188 26 5 24.6685 5 23.0414V16.2581C5 14.6307 6.47197 13.2989 8.27257 13.2989H21.7278C23.5277 13.2989 25 14.631 25 16.2581ZM9.16968 23.7782L9.16908 16.6325L10.8368 16.6331V15.574L6.39067 15.5675V16.6081L7.77875 16.6121V23.7778L9.16968 23.7782ZM14.1697 17.6972H12.779V21.5127C12.779 22.0649 12.8135 22.3409 12.7771 22.438C12.6636 22.7338 12.1552 23.048 11.9574 22.4701C11.9239 22.3687 11.9535 22.0633 11.9529 21.5386L11.9465 17.6968H10.5635L10.5687 21.478C10.5693 22.0577 10.5548 22.4899 10.5732 22.6865C10.6071 23.0333 10.5945 23.438 10.931 23.6684C11.5562 24.1009 12.7555 23.6041 13.0555 22.9867L13.0529 23.7744L14.1693 23.7759L14.1697 17.6972ZM18.6184 22.0663L18.6158 18.8905C18.6145 17.6798 17.67 16.9549 16.3867 17.9343L16.3925 15.573L15.0031 15.5751L14.9963 23.7246L16.1386 23.7085L16.2425 23.2006C17.7028 24.4855 18.6209 23.6056 18.6184 22.0663ZM22.9713 21.6456L21.928 21.6509C21.928 21.6908 21.9261 21.7363 21.9255 21.7863V22.344C21.9255 22.6424 21.6684 22.8854 21.3558 22.8854H21.1515C20.8383 22.8854 20.5813 22.6424 20.5813 22.344V22.2822V21.6683V20.8768H22.969V20.0155C22.969 19.3864 22.952 18.7573 22.8977 18.3975C22.7271 17.2589 21.06 17.0784 20.2174 17.6611C19.9529 17.8432 19.7513 18.0867 19.6333 18.4145C19.5149 18.7419 19.4562 19.1886 19.4562 19.7568V21.6503C19.4571 24.798 23.4464 24.3531 22.9713 21.6456ZM17.6222 11.3646C17.6935 11.5322 17.8048 11.6673 17.9567 11.7699C18.1054 11.87 18.2971 11.9211 18.5257 11.9211C18.7261 11.9211 18.9038 11.8691 19.058 11.7619C19.2125 11.6552 19.3428 11.4963 19.4486 11.2837L19.4222 11.8067H20.9721V5.48895H19.7518V10.406C19.7518 10.6718 19.5225 10.8898 19.2427 10.8898C18.965 10.8898 18.735 10.6718 18.735 10.406V5.48895H17.4617V9.74996C17.4617 10.2929 17.4717 10.6548 17.4888 10.8385C17.5071 11.0208 17.5506 11.1955 17.6222 11.3646ZM12.9249 7.79647C12.9249 7.18995 12.9778 6.71662 13.0823 6.37531C13.1875 6.03491 13.3777 5.76135 13.652 5.55546C13.9261 5.348 14.2772 5.24448 14.703 5.24448C15.0613 5.24448 15.3688 5.31215 15.6258 5.44417C15.8829 5.57711 16.0826 5.74929 16.22 5.96229C16.3613 6.17595 16.4561 6.39572 16.5074 6.62045C16.5597 6.84798 16.5849 7.1921 16.5849 7.65486V9.25283C16.5849 9.83894 16.5604 10.2699 16.513 10.5439C16.4661 10.8184 16.3649 11.0728 16.2081 11.3112C16.0533 11.5474 15.8533 11.7239 15.6107 11.8364C15.3662 11.9505 15.0865 12.0061 14.7697 12.0061C14.4168 12.0061 14.1187 11.9594 13.8739 11.8614C13.6281 11.7643 13.4377 11.6178 13.3025 11.4234C13.1651 11.2286 13.0693 10.9915 13.0116 10.7151C12.9529 10.4384 12.9251 10.0233 12.9251 9.4693L12.9249 7.79647ZM14.1384 10.3064C14.1384 10.6637 14.4167 10.9559 14.7551 10.9559C15.0935 10.9559 15.37 10.6641 15.37 10.3064V6.94292C15.37 6.58558 15.0935 6.29343 14.7551 6.29343C14.4167 6.29343 14.1384 6.58525 14.1384 6.94292V10.3064ZM9.84833 12.0045H11.3112L11.3125 7.15897L13.0406 3.00801H11.441L10.5222 6.09176L9.5903 3H8.00773L9.84609 7.16178L9.84833 12.0045Z" fill="#CC1D1D"/>
</svg>
