<svg width="29" height="29" viewBox="0 0 29 29" fill="none" xmlns="http://www.w3.org/2000/svg">
<mask id="path-1-outside-1" maskUnits="userSpaceOnUse" x="3" y="3.51123" width="23" height="23" fill="black">
<rect fill="white" x="3" y="3.51123" width="23" height="23"/>
<path d="M8.29005 18.6479C10.386 21.1553 12.9091 23.1295 15.7889 24.5264C16.8853 25.0464 18.3516 25.6633 19.9853 25.7691C20.0866 25.7735 20.1834 25.7779 20.2847 25.7779C21.3811 25.7779 22.2618 25.3989 22.9795 24.6189C22.9839 24.6145 22.9927 24.6057 22.9972 24.5969C23.2525 24.2884 23.5432 24.0108 23.847 23.7156C24.054 23.5173 24.2653 23.3102 24.4679 23.0986C25.4058 22.1203 25.4058 20.8777 24.4591 19.9302L21.8127 17.2818C21.3635 16.8147 20.8263 16.5679 20.2627 16.5679C19.6991 16.5679 19.1575 16.8147 18.6951 17.2774L17.1187 18.855C16.9734 18.7713 16.8237 18.6964 16.6828 18.6258C16.5066 18.5377 16.3437 18.454 16.1984 18.3614C14.7629 17.4493 13.4595 16.2595 12.2134 14.7303C11.5837 13.9327 11.161 13.2629 10.866 12.5799C11.2799 12.2053 11.6674 11.8131 12.0417 11.4297C12.1738 11.2931 12.3103 11.1565 12.4468 11.0199C12.9223 10.544 13.1777 9.99315 13.1777 9.4335C13.1777 8.87385 12.9267 8.32301 12.4468 7.84709L11.1346 6.5339C10.9805 6.37967 10.8352 6.22984 10.6855 6.0756C10.3948 5.77595 10.091 5.46748 9.79158 5.18986C9.33804 4.74478 8.80523 4.51123 8.24161 4.51123C7.68239 4.51123 7.14518 4.74478 6.67402 5.19427L5.02718 6.84237C4.42833 7.44168 4.08927 8.16878 4.01882 9.01046C3.93516 10.0637 4.1289 11.183 4.63088 12.5358C5.40146 14.629 6.56394 16.5723 8.29005 18.6479ZM5.09323 9.103C5.14607 8.51691 5.37064 8.02777 5.79336 7.60472L7.4314 5.96544C7.68679 5.71866 7.9686 5.59087 8.24161 5.59087C8.51021 5.59087 8.78322 5.71866 9.03421 5.97425C9.32923 6.24747 9.60664 6.5339 9.90607 6.83796C10.0558 6.9922 10.2099 7.14643 10.364 7.30507L11.6762 8.61826C11.9492 8.89148 12.0901 9.1691 12.0901 9.44231C12.0901 9.71553 11.9492 9.99315 11.6762 10.2664C11.5397 10.403 11.4032 10.544 11.2667 10.6806C10.8572 11.0948 10.4741 11.487 10.0514 11.8616C10.0426 11.8704 10.0382 11.8748 10.0294 11.8836C9.66388 12.2494 9.72113 12.5975 9.80919 12.8619C9.8136 12.8751 9.818 12.8839 9.8224 12.8972C10.1615 13.7124 10.6326 14.488 11.368 15.4134C12.689 17.0438 14.0804 18.3086 15.6128 19.2824C15.8021 19.4058 16.0047 19.5028 16.194 19.5997C16.3701 19.6879 16.5331 19.7716 16.6784 19.8641C16.696 19.8729 16.7092 19.8818 16.7268 19.8906C16.8721 19.9655 17.013 20.0007 17.1539 20.0007C17.5062 20.0007 17.7352 19.776 17.81 19.7011L19.4569 18.053C19.7123 17.7974 19.9897 17.6608 20.2627 17.6608C20.5973 17.6608 20.8703 17.8679 21.0421 18.053L23.6973 20.7058C24.2257 21.2346 24.2213 21.8075 23.6841 22.3671C23.4991 22.5654 23.3054 22.7549 23.0984 22.9532C22.7902 23.2529 22.4688 23.5613 22.1781 23.9095C21.6718 24.4559 21.0685 24.7115 20.2891 24.7115C20.2143 24.7115 20.135 24.7071 20.0601 24.7027C18.6158 24.6101 17.2728 24.0461 16.2645 23.5657C13.5256 22.2393 11.1214 20.3577 9.12668 17.9693C7.48424 15.9906 6.379 14.1487 5.64805 12.1745C5.19451 10.9626 5.02278 9.98874 5.09323 9.103Z"/>
</mask>
<path d="M8.29005 18.6479C10.386 21.1553 12.9091 23.1295 15.7889 24.5264C16.8853 25.0464 18.3516 25.6633 19.9853 25.7691C20.0866 25.7735 20.1834 25.7779 20.2847 25.7779C21.3811 25.7779 22.2618 25.3989 22.9795 24.6189C22.9839 24.6145 22.9927 24.6057 22.9972 24.5969C23.2525 24.2884 23.5432 24.0108 23.847 23.7156C24.054 23.5173 24.2653 23.3102 24.4679 23.0986C25.4058 22.1203 25.4058 20.8777 24.4591 19.9302L21.8127 17.2818C21.3635 16.8147 20.8263 16.5679 20.2627 16.5679C19.6991 16.5679 19.1575 16.8147 18.6951 17.2774L17.1187 18.855C16.9734 18.7713 16.8237 18.6964 16.6828 18.6258C16.5066 18.5377 16.3437 18.454 16.1984 18.3614C14.7629 17.4493 13.4595 16.2595 12.2134 14.7303C11.5837 13.9327 11.161 13.2629 10.866 12.5799C11.2799 12.2053 11.6674 11.8131 12.0417 11.4297C12.1738 11.2931 12.3103 11.1565 12.4468 11.0199C12.9223 10.544 13.1777 9.99315 13.1777 9.4335C13.1777 8.87385 12.9267 8.32301 12.4468 7.84709L11.1346 6.5339C10.9805 6.37967 10.8352 6.22984 10.6855 6.0756C10.3948 5.77595 10.091 5.46748 9.79158 5.18986C9.33804 4.74478 8.80523 4.51123 8.24161 4.51123C7.68239 4.51123 7.14518 4.74478 6.67402 5.19427L5.02718 6.84237C4.42833 7.44168 4.08927 8.16878 4.01882 9.01046C3.93516 10.0637 4.1289 11.183 4.63088 12.5358C5.40146 14.629 6.56394 16.5723 8.29005 18.6479ZM5.09323 9.103C5.14607 8.51691 5.37064 8.02777 5.79336 7.60472L7.4314 5.96544C7.68679 5.71866 7.9686 5.59087 8.24161 5.59087C8.51021 5.59087 8.78322 5.71866 9.03421 5.97425C9.32923 6.24747 9.60664 6.5339 9.90607 6.83796C10.0558 6.9922 10.2099 7.14643 10.364 7.30507L11.6762 8.61826C11.9492 8.89148 12.0901 9.1691 12.0901 9.44231C12.0901 9.71553 11.9492 9.99315 11.6762 10.2664C11.5397 10.403 11.4032 10.544 11.2667 10.6806C10.8572 11.0948 10.4741 11.487 10.0514 11.8616C10.0426 11.8704 10.0382 11.8748 10.0294 11.8836C9.66388 12.2494 9.72113 12.5975 9.80919 12.8619C9.8136 12.8751 9.818 12.8839 9.8224 12.8972C10.1615 13.7124 10.6326 14.488 11.368 15.4134C12.689 17.0438 14.0804 18.3086 15.6128 19.2824C15.8021 19.4058 16.0047 19.5028 16.194 19.5997C16.3701 19.6879 16.5331 19.7716 16.6784 19.8641C16.696 19.8729 16.7092 19.8818 16.7268 19.8906C16.8721 19.9655 17.013 20.0007 17.1539 20.0007C17.5062 20.0007 17.7352 19.776 17.81 19.7011L19.4569 18.053C19.7123 17.7974 19.9897 17.6608 20.2627 17.6608C20.5973 17.6608 20.8703 17.8679 21.0421 18.053L23.6973 20.7058C24.2257 21.2346 24.2213 21.8075 23.6841 22.3671C23.4991 22.5654 23.3054 22.7549 23.0984 22.9532C22.7902 23.2529 22.4688 23.5613 22.1781 23.9095C21.6718 24.4559 21.0685 24.7115 20.2891 24.7115C20.2143 24.7115 20.135 24.7071 20.0601 24.7027C18.6158 24.6101 17.2728 24.0461 16.2645 23.5657C13.5256 22.2393 11.1214 20.3577 9.12668 17.9693C7.48424 15.9906 6.379 14.1487 5.64805 12.1745C5.19451 10.9626 5.02278 9.98874 5.09323 9.103Z" fill="url(#paint0_linear)"/>
<path d="M8.29005 18.6479L8.13627 18.7758L8.1366 18.7762L8.29005 18.6479ZM15.7889 24.5264L15.7016 24.7064L15.7032 24.7071L15.7889 24.5264ZM19.9853 25.7691L19.9724 25.9687L19.9766 25.9689L19.9853 25.7691ZM22.9795 24.6189L22.8379 24.4775L22.8324 24.4835L22.9795 24.6189ZM22.9972 24.5969L22.8431 24.4694L22.8285 24.487L22.8182 24.5075L22.9972 24.5969ZM23.847 23.7156L23.7086 23.5712L23.7076 23.5721L23.847 23.7156ZM24.4679 23.0986L24.3235 22.9602L24.3234 22.9603L24.4679 23.0986ZM24.4591 19.9302L24.6005 19.7889L24.4591 19.9302ZM21.8127 17.2818L21.6685 17.4205L21.6712 17.4232L21.8127 17.2818ZM18.6951 17.2774L18.8366 17.4188V17.4188L18.6951 17.2774ZM17.1187 18.855L17.0189 19.0283L17.1518 19.1049L17.2602 18.9964L17.1187 18.855ZM16.6828 18.6258L16.7723 18.447L16.6828 18.6258ZM16.1984 18.3614L16.3059 18.1928L16.3057 18.1926L16.1984 18.3614ZM12.2134 14.7303L12.0564 14.8543L12.0584 14.8567L12.2134 14.7303ZM10.866 12.5799L10.7318 12.4316L10.6256 12.5277L10.6824 12.6592L10.866 12.5799ZM12.0417 11.4297L12.1848 11.5694L12.1855 11.5688L12.0417 11.4297ZM12.4468 7.84709L12.3053 7.98846L12.306 7.98911L12.4468 7.84709ZM11.1346 6.5339L10.9931 6.67527L11.1346 6.5339ZM10.6855 6.0756L10.5419 6.21484L10.5419 6.21491L10.6855 6.0756ZM9.79158 5.18986L9.65144 5.33267L9.6556 5.33652L9.79158 5.18986ZM6.67402 5.19427L6.53593 5.04951L6.53255 5.0529L6.67402 5.19427ZM5.02718 6.84237L5.16866 6.98374L5.02718 6.84237ZM4.01882 9.01046L3.81951 8.99377L3.81945 8.99462L4.01882 9.01046ZM4.63088 12.5358L4.81857 12.4667L4.81839 12.4662L4.63088 12.5358ZM5.09323 9.103L4.89403 9.08504L4.89386 9.08714L5.09323 9.103ZM5.79336 7.60472L5.65188 7.46336L5.79336 7.60472ZM7.4314 5.96544L7.2924 5.82159L7.28992 5.82407L7.4314 5.96544ZM9.03421 5.97425L8.89135 6.11454L8.89831 6.12099L9.03421 5.97425ZM9.90607 6.83796L10.0496 6.69866L10.0486 6.69763L9.90607 6.83796ZM10.364 7.30507L10.2205 7.44444L10.2225 7.44644L10.364 7.30507ZM11.6762 8.61826L11.8177 8.4769L11.6762 8.61826ZM11.2667 10.6806L11.1252 10.5392L11.1245 10.54L11.2667 10.6806ZM10.0514 11.8616L9.91849 11.7116L9.9099 11.7202L10.0514 11.8616ZM10.0294 11.8836L9.88788 11.7423L10.0294 11.8836ZM9.80919 12.8619L9.99894 12.7987L9.80919 12.8619ZM9.8224 12.8972L9.63265 12.9604L9.63495 12.9672L9.63774 12.974L9.8224 12.8972ZM11.368 15.4134L11.2114 15.5378L11.2126 15.5393L11.368 15.4134ZM15.6128 19.2824L15.722 19.1149L15.7201 19.1137L15.6128 19.2824ZM16.194 19.5997L16.1029 19.7778L16.1045 19.7786L16.194 19.5997ZM16.6784 19.8641L16.5709 20.0328L16.5797 20.0384L16.5889 20.043L16.6784 19.8641ZM16.7268 19.8906L16.8185 19.7128L16.8163 19.7117L16.7268 19.8906ZM17.81 19.7011L17.9515 19.8424L17.81 19.7011ZM19.4569 18.053L19.3154 17.9116L19.4569 18.053ZM21.0421 18.053L20.8954 18.1891L20.9007 18.1945L21.0421 18.053ZM23.6973 20.7058L23.8388 20.5644L23.8386 20.5643L23.6973 20.7058ZM23.6841 22.3671L23.5398 22.2286L23.5378 22.2307L23.6841 22.3671ZM23.0984 22.9532L22.9601 22.8088L22.959 22.8098L23.0984 22.9532ZM22.1781 23.9095L22.325 24.0456L22.3317 24.0376L22.1781 23.9095ZM20.0601 24.7027L20.0473 24.9023L20.0484 24.9023L20.0601 24.7027ZM16.2645 23.5657L16.1773 23.7458L16.1785 23.7463L16.2645 23.5657ZM9.12668 17.9693L8.97279 18.097L8.97317 18.0975L9.12668 17.9693ZM5.64805 12.1745L5.83561 12.105L5.83536 12.1044L5.64805 12.1745ZM8.1366 18.7762C10.2505 21.3049 12.796 23.2969 15.7016 24.7063L15.8762 24.3465C13.0223 22.9621 10.5216 21.0056 8.44349 18.5196L8.1366 18.7762ZM15.7032 24.7071C16.8043 25.2293 18.2991 25.8603 19.9724 25.9687L19.9982 25.5695C18.4042 25.4663 16.9664 24.8635 15.8746 24.3457L15.7032 24.7071ZM19.9766 25.9689C20.0768 25.9733 20.1783 25.9779 20.2847 25.9779V25.5779C20.1886 25.5779 20.0963 25.5737 19.994 25.5693L19.9766 25.9689ZM20.2847 25.9779C21.4349 25.9779 22.3697 25.577 23.1267 24.7544L22.8324 24.4835C22.1539 25.2208 21.3273 25.5779 20.2847 25.5779V25.9779ZM23.121 24.7603C23.1231 24.7582 23.1314 24.75 23.1402 24.7397C23.1481 24.7305 23.1633 24.7118 23.1761 24.6863L22.8182 24.5075C22.8229 24.4983 22.8273 24.4916 22.83 24.4878C22.8328 24.4838 22.8352 24.481 22.8364 24.4795C22.8387 24.4769 22.8403 24.4753 22.8381 24.4776L23.121 24.7603ZM23.1512 24.7245C23.3982 24.4262 23.6799 24.1569 23.9864 23.859L23.7076 23.5721C23.4065 23.8648 23.1069 24.1507 22.8431 24.4694L23.1512 24.7245ZM23.9854 23.86C24.1933 23.6607 24.4069 23.4514 24.6123 23.237L24.3234 22.9603C24.1237 23.1689 23.9146 23.3738 23.7086 23.5712L23.9854 23.86ZM24.6122 23.237C25.1109 22.7169 25.3714 22.1138 25.3702 21.5025C25.369 20.8907 25.1056 20.2943 24.6005 19.7889L24.3176 20.0716C24.7592 20.5136 24.9692 21.0123 24.9702 21.5033C24.9712 21.9947 24.7628 22.5021 24.3235 22.9602L24.6122 23.237ZM24.6005 19.7889L21.9541 17.1404L21.6712 17.4232L24.3176 20.0716L24.6005 19.7889ZM21.9568 17.1432C21.476 16.6431 20.8888 16.3679 20.2627 16.3679V16.7679C20.7638 16.7679 21.2511 16.9863 21.6685 17.4204L21.9568 17.1432ZM20.2627 16.3679C19.6369 16.3679 19.0465 16.6427 18.5536 17.136L18.8366 17.4188C19.2684 16.9867 19.7612 16.7679 20.2627 16.7679V16.3679ZM18.5536 17.136L16.9772 18.7136L17.2602 18.9964L18.8366 17.4188L18.5536 17.136ZM17.2186 18.6817C17.0673 18.5946 16.9124 18.5171 16.7723 18.447L16.5933 18.8047C16.735 18.8756 16.8795 18.948 17.0189 19.0283L17.2186 18.6817ZM16.7723 18.447C16.5959 18.3587 16.4415 18.2791 16.3059 18.1928L16.091 18.5301C16.246 18.6289 16.4174 18.7167 16.5933 18.8047L16.7723 18.447ZM16.3057 18.1926C14.8911 17.2937 13.6033 16.1192 12.3684 14.604L12.0584 14.8567C13.3158 16.3997 14.6348 17.6048 16.0912 18.5302L16.3057 18.1926ZM12.3704 14.6064C11.7474 13.8173 11.3355 13.1626 11.0496 12.5006L10.6824 12.6592C10.9865 13.3633 11.42 14.0482 12.0564 14.8543L12.3704 14.6064ZM11.0002 12.7282C11.4191 12.3491 11.8103 11.953 12.1848 11.5694L11.8986 11.29C11.5244 11.6732 11.1407 12.0615 10.7318 12.4316L11.0002 12.7282ZM12.1855 11.5688C12.3162 11.4335 12.4515 11.2981 12.5883 11.1613L12.3053 10.8785C12.169 11.0149 12.0313 11.1527 11.8979 11.2907L12.1855 11.5688ZM12.5883 11.1613C13.0928 10.6564 13.3777 10.0571 13.3777 9.4335H12.9777C12.9777 9.92918 12.7519 10.4316 12.3053 10.8785L12.5883 11.1613ZM13.3777 9.4335C13.3777 8.8106 13.0978 8.21094 12.5876 7.70507L12.306 7.98911C12.7557 8.43509 12.9777 8.9371 12.9777 9.4335H13.3777ZM12.5883 7.70572L11.2761 6.39253L10.9931 6.67527L12.3053 7.98846L12.5883 7.70572ZM11.2761 6.39253C11.1232 6.23951 10.9789 6.09074 10.829 5.9363L10.5419 6.21491C10.6915 6.36893 10.8378 6.51983 10.9931 6.67527L11.2761 6.39253ZM10.829 5.93636C10.5381 5.63638 10.2311 5.32467 9.92756 5.0432L9.6556 5.33652C9.95087 5.61029 10.2516 5.91551 10.5419 6.21484L10.829 5.93636ZM9.93166 5.04711C9.44598 4.5705 8.86456 4.31123 8.24161 4.31123V4.71123C8.74591 4.71123 9.23009 4.91907 9.6515 5.33261L9.93166 5.04711ZM8.24161 4.31123C7.62274 4.31123 7.03791 4.57071 6.53597 5.04956L6.81208 5.33898C7.25245 4.91886 7.74204 4.71123 8.24161 4.71123V4.31123ZM6.53255 5.0529L4.88571 6.701L5.16866 6.98374L6.8155 5.33563L6.53255 5.0529ZM4.88571 6.701C4.25372 7.33347 3.89394 8.10464 3.81952 8.99377L4.21812 9.02714C4.2846 8.23292 4.60294 7.54989 5.16866 6.98374L4.88571 6.701ZM3.81945 8.99462C3.73281 10.0853 3.93473 11.2346 4.44337 12.6054L4.81839 12.4662C4.32308 11.1313 4.13751 10.042 4.21819 9.0263L3.81945 8.99462ZM4.4432 12.6049C5.22309 14.7234 6.39852 16.6862 8.13627 18.7758L8.44382 18.52C6.72937 16.4585 5.57984 14.5346 4.81857 12.4667L4.4432 12.6049ZM5.29242 9.12096C5.34111 8.58093 5.5456 8.13562 5.93483 7.74609L5.65188 7.46336C5.19568 7.91991 4.95103 8.45289 4.89404 9.08504L5.29242 9.12096ZM5.93483 7.74609L7.57287 6.1068L7.28992 5.82407L5.65188 7.46336L5.93483 7.74609ZM7.57037 6.10926C7.79877 5.88858 8.0332 5.79087 8.24161 5.79087V5.39087C7.90401 5.39087 7.57481 5.54875 7.29242 5.82161L7.57037 6.10926ZM8.24161 5.79087C8.44294 5.79087 8.66738 5.88615 8.89151 6.11438L9.17691 5.83412C8.89905 5.55117 8.57749 5.39087 8.24161 5.39087V5.79087ZM8.89831 6.12099C9.18906 6.39024 9.46234 6.67241 9.76356 6.97829L10.0486 6.69763C9.75094 6.39539 9.4694 6.10469 9.1701 5.82751L8.89831 6.12099ZM9.76256 6.97726C9.83801 7.05499 9.91448 7.13263 9.99091 7.21022C10.0675 7.28797 10.1441 7.36569 10.2206 7.44443L10.5075 7.16571C10.4298 7.08581 10.3523 7.00709 10.2759 6.92951C10.1993 6.85176 10.1238 6.77516 10.0496 6.69866L9.76256 6.97726ZM10.2225 7.44644L11.5347 8.75963L11.8177 8.4769L10.5055 7.1637L10.2225 7.44644ZM11.5347 8.75963C11.7867 9.01179 11.8901 9.24155 11.8901 9.44231H12.2901C12.2901 9.09664 12.1117 8.77116 11.8177 8.4769L11.5347 8.75963ZM11.8901 9.44231C11.8901 9.64307 11.7867 9.87283 11.5347 10.125L11.8177 10.4077C12.1117 10.1135 12.2901 9.78798 12.2901 9.44231H11.8901ZM11.5347 10.125C11.4658 10.194 11.397 10.2639 11.3288 10.3332C11.2605 10.4028 11.1928 10.4716 11.1252 10.5392L11.4082 10.822C11.4771 10.753 11.5459 10.683 11.614 10.6137C11.6824 10.5442 11.7501 10.4754 11.8177 10.4077L11.5347 10.125ZM11.1245 10.54C10.7134 10.9558 10.3354 11.3427 9.91874 11.7119L10.184 12.0113C10.6128 11.6314 11.001 11.2338 11.4089 10.8212L11.1245 10.54ZM9.9099 11.7202C9.90113 11.729 9.90656 11.7236 9.89889 11.7312C9.89738 11.7327 9.89793 11.7322 9.8964 11.7337C9.89552 11.7346 9.89473 11.7354 9.8938 11.7363C9.89126 11.7389 9.89499 11.7351 9.89243 11.7377C9.89175 11.7384 9.8917 11.7384 9.891 11.7391C9.89075 11.7394 9.88976 11.7404 9.88949 11.7406C9.88667 11.7435 9.89073 11.7394 9.88788 11.7423L10.1708 12.025C10.1796 12.0162 10.1742 12.0216 10.1818 12.014C10.1834 12.0125 10.1828 12.013 10.1843 12.0115C10.1852 12.0106 10.186 12.0098 10.1869 12.0089C10.1895 12.0063 10.1857 12.0101 10.1883 12.0075C10.189 12.0068 10.189 12.0068 10.1897 12.0061C10.19 12.0058 10.191 12.0048 10.1912 12.0046C10.1941 12.0017 10.19 12.0058 10.1929 12.003L9.9099 11.7202ZM9.88788 11.7423C9.67668 11.9536 9.577 12.1722 9.55069 12.3864C9.52501 12.5955 9.57172 12.7818 9.61944 12.9251L9.99894 12.7987C9.9586 12.6776 9.93266 12.5577 9.94771 12.4352C9.96213 12.3177 10.0166 12.1794 10.1708 12.025L9.88788 11.7423ZM9.61944 12.9251C9.62373 12.938 9.62798 12.9485 9.63008 12.9538C9.63238 12.9595 9.63253 12.96 9.63265 12.9604L10.0122 12.834C10.0079 12.8211 10.0036 12.8106 10.0015 12.8053C9.99921 12.7995 9.99906 12.7991 9.99894 12.7987L9.61944 12.9251ZM9.63774 12.974C9.98554 13.8102 10.4675 14.6017 11.2114 15.5378L11.5246 15.2889C10.7977 14.3743 10.3374 13.6146 10.0071 12.8204L9.63774 12.974ZM11.2126 15.5393C12.5453 17.1842 13.9525 18.4643 15.5055 19.4512L15.7201 19.1137C14.2083 18.1529 12.8326 16.9035 11.5234 15.2875L11.2126 15.5393ZM15.5036 19.45C15.7042 19.5808 15.9201 19.6842 16.1029 19.7777L16.2852 19.4217C16.0892 19.3214 15.9 19.2309 15.722 19.1149L15.5036 19.45ZM16.1045 19.7786C16.2809 19.8668 16.4353 19.9465 16.5709 20.0328L16.7858 19.6954C16.6308 19.5967 16.4594 19.5089 16.2835 19.4209L16.1045 19.7786ZM16.5889 20.043C16.592 20.0446 16.5952 20.0463 16.6033 20.051C16.6106 20.0551 16.6229 20.0622 16.6373 20.0694L16.8163 19.7117C16.8132 19.7101 16.81 19.7084 16.8019 19.7037C16.7946 19.6996 16.7823 19.6925 16.7679 19.6853L16.5889 20.043ZM16.6352 20.0683C16.8057 20.1562 16.9778 20.2007 17.1539 20.2007V19.8007C17.0483 19.8007 16.9386 19.7747 16.8185 19.7128L16.6352 20.0683ZM17.1539 20.2007C17.5931 20.2007 17.873 19.921 17.9515 19.8424L17.6686 19.5597C17.5974 19.6309 17.4193 19.8007 17.1539 19.8007V20.2007ZM17.9515 19.8424L19.5984 18.1943L19.3154 17.9116L17.6686 19.5597L17.9515 19.8424ZM19.5984 18.1943C19.8296 17.9629 20.0591 17.8608 20.2627 17.8608V17.4608C19.9202 17.4608 19.5949 17.6319 19.3154 17.9116L19.5984 18.1943ZM20.2627 17.8608C20.5146 17.8608 20.738 18.0193 20.8955 18.189L21.1887 17.9169C21.0027 17.7165 20.6801 17.4608 20.2627 17.4608V17.8608ZM20.9007 18.1945L23.5559 20.8473L23.8386 20.5643L21.1834 17.9115L20.9007 18.1945ZM23.5558 20.8472C23.7948 21.0863 23.8919 21.3132 23.8903 21.5233C23.8886 21.7351 23.7863 21.9718 23.5398 22.2286L23.8284 22.5056C24.119 22.2028 24.2875 21.8733 24.2903 21.5265C24.293 21.1781 24.1282 20.8541 23.8388 20.5644L23.5558 20.8472ZM23.5378 22.2307C23.3568 22.4248 23.1664 22.6111 22.9601 22.8088L23.2368 23.0976C23.4444 22.8987 23.6414 22.7061 23.8303 22.5035L23.5378 22.2307ZM22.959 22.8098C22.6528 23.1075 22.3232 23.4236 22.0246 23.7813L22.3317 24.0376C22.6143 23.6991 22.9276 23.3983 23.2378 23.0966L22.959 22.8098ZM22.0314 23.7735C21.5649 24.2769 21.0159 24.5115 20.2891 24.5115V24.9115C21.1211 24.9115 21.7786 24.6349 22.3248 24.0454L22.0314 23.7735ZM20.2891 24.5115C20.2209 24.5115 20.1472 24.5075 20.0719 24.503L20.0484 24.9023C20.1227 24.9067 20.2076 24.9115 20.2891 24.9115V24.5115ZM20.0729 24.5031C18.6687 24.4131 17.3546 23.8635 16.3505 23.3852L16.1785 23.7463C17.191 24.2286 18.563 24.8072 20.0473 24.9023L20.0729 24.5031ZM16.3516 23.3857C13.6387 22.0719 11.257 20.2081 9.28018 17.8411L8.97317 18.0975C10.9858 20.5073 13.4125 22.4068 16.1773 23.7457L16.3516 23.3857ZM9.28057 17.8415C7.6495 15.8766 6.5572 14.0539 5.83561 12.105L5.46049 12.2439C6.2008 14.2434 7.31897 16.1047 8.97279 18.097L9.28057 17.8415ZM5.83536 12.1044C5.3881 10.9093 5.22523 9.96587 5.2926 9.11886L4.89386 9.08714C4.82033 10.0116 5.00092 11.0159 5.46074 12.2446L5.83536 12.1044Z" fill="url(#paint1_linear)" mask="url(#path-1-outside-1)"/>
<defs>
<linearGradient id="paint0_linear" x1="9.18877" y1="-0.49269" x2="29.2673" y2="3.14138" gradientUnits="userSpaceOnUse">
<stop stop-color="#FB912F"/>
<stop offset="1" stop-color="#DC5126"/>
</linearGradient>
<linearGradient id="paint1_linear" x1="9.18877" y1="-0.49269" x2="29.2673" y2="3.14138" gradientUnits="userSpaceOnUse">
<stop stop-color="#FB912F"/>
<stop offset="1" stop-color="#DC5126"/>
</linearGradient>
</defs>
</svg>
