<svg width="27" height="27" viewBox="0 0 27 27" fill="none" xmlns="http://www.w3.org/2000/svg">
<path d="M22.561 4.68066H4.4387C3.28563 4.68066 2.34766 5.66483 2.34766 6.87469V20.0387C2.34766 21.2486 3.28563 22.2327 4.4387 22.2327H22.561C23.714 22.2327 24.652 21.2486 24.652 20.0387V6.87469C24.652 5.66483 23.714 4.68066 22.561 4.68066ZM22.561 6.14333C22.6557 6.14333 22.7457 6.16394 22.8281 6.19995L13.4998 14.683L4.1715 6.19995C4.25387 6.16399 4.34396 6.14333 4.43866 6.14333H22.561ZM22.561 20.77H4.4387C4.05413 20.77 3.74167 20.4422 3.74167 20.0387V7.74527L13.0431 16.2035C13.1745 16.3227 13.3372 16.382 13.4998 16.382C13.6625 16.382 13.8252 16.3228 13.9566 16.2035L23.258 7.74527V20.0387C23.2579 20.4422 22.9455 20.77 22.561 20.77Z" fill="url(#paint0_linear)"/>
<defs>
<linearGradient id="paint0_linear" x1="7.81441" y1="0.550765" x2="28.5544" y2="5.34265" gradientUnits="userSpaceOnUse">
<stop stop-color="#FB912F"/>
<stop offset="1" stop-color="#DC5126"/>
</linearGradient>
</defs>
</svg>
