<svg width="35" height="35" viewBox="0 0 35 35" fill="none" xmlns="http://www.w3.org/2000/svg">
<path d="M30.7593 24.271C30.6868 24.1448 30.2379 23.1317 28.0777 21.0494C25.8163 18.869 26.1201 19.2231 28.8439 15.4529C30.5028 13.1568 31.1661 11.7546 30.9585 11.1552C30.761 10.5838 29.5409 10.7345 29.5409 10.7345L25.4838 10.7591C25.4838 10.7591 25.1834 10.717 24.959 10.8555C24.7413 10.9922 24.6012 11.3077 24.6012 11.3077C24.6012 11.3077 23.9582 13.085 23.1009 14.5958C21.2935 17.7841 20.5695 17.9523 20.2741 17.7543C19.5873 17.2933 19.7594 15.8999 19.7594 14.9113C19.7594 11.8213 20.21 10.533 18.8802 10.2C18.438 10.0895 18.114 10.0159 16.985 10.0037C15.537 9.98788 14.3101 10.0089 13.6165 10.3612C13.154 10.5961 12.798 11.1202 13.0157 11.1499C13.284 11.1868 13.8915 11.32 14.2139 11.7757C14.6307 12.3628 14.6155 13.6844 14.6155 13.6844C14.6155 13.6844 14.8552 17.3214 14.0569 17.7736C13.5085 18.0838 12.7575 17.4511 11.1458 14.5573C10.3205 13.0762 9.69611 11.4374 9.69611 11.4374C9.69611 11.4374 9.57629 11.1324 9.36196 10.9694C9.10206 10.7714 8.73754 10.7083 8.73754 10.7083L4.87963 10.7328C4.87963 10.7328 4.30077 10.7503 4.08813 11.0115C3.89912 11.2446 4.07294 11.7248 4.07294 11.7248C4.07294 11.7248 7.09379 19.0636 10.5129 22.7636C13.6502 26.1552 17.2111 25.9326 17.2111 25.9326H18.8245C18.8245 25.9326 19.3122 25.8765 19.5603 25.5978C19.7898 25.3419 19.7813 24.8617 19.7813 24.8617C19.7813 24.8617 19.7493 22.6129 20.7551 22.2816C21.7457 21.9556 23.0182 24.455 24.3666 25.4173C25.3859 26.1447 26.1606 25.9852 26.1606 25.9852L29.767 25.9326C29.767 25.9326 31.6538 25.8117 30.7593 24.271Z" fill="#4D76A1"/>
</svg>
