<svg width="35" height="35" viewBox="0 0 35 35" fill="none" xmlns="http://www.w3.org/2000/svg">
<path d="M24.918 22.8238H23.6L23.6064 22.0906C23.6064 21.7644 23.8855 21.4983 24.2271 21.4983H24.3115C24.6532 21.4983 24.9335 21.7645 24.9335 22.0906L24.918 22.8238ZM19.9764 21.2524C19.6432 21.2524 19.3697 21.4679 19.3697 21.7313V25.2973C19.3697 25.5607 19.6432 25.7749 19.9764 25.7749C20.3122 25.7749 20.5858 25.5607 20.5858 25.2973V21.7309C20.5858 21.4679 20.3122 21.2524 19.9764 21.2524ZM28 19.2581V26.0414C28 27.6688 26.5278 29 24.7274 29H11.2726C9.47188 29 8 27.6685 8 26.0414V19.2581C8 17.6307 9.47197 16.2989 11.2726 16.2989H24.7278C26.5277 16.2989 28 17.631 28 19.2581ZM12.1697 26.7782L12.1691 19.6325L13.8368 19.6331V18.574L9.39067 18.5675V19.6081L10.7788 19.6121V26.7778L12.1697 26.7782ZM17.1697 20.6972H15.779V24.5127C15.779 25.0649 15.8135 25.3409 15.7771 25.438C15.6636 25.7338 15.1552 26.048 14.9574 25.4701C14.9239 25.3687 14.9535 25.0633 14.9529 24.5386L14.9465 20.6968H13.5635L13.5687 24.478C13.5693 25.0577 13.5548 25.4899 13.5732 25.6865C13.6071 26.0333 13.5945 26.438 13.931 26.6684C14.5562 27.1009 15.7555 26.6041 16.0555 25.9867L16.0529 26.7744L17.1693 26.7759L17.1697 20.6972ZM21.6184 25.0663L21.6158 21.8905C21.6145 20.6798 20.67 19.9549 19.3867 20.9343L19.3925 18.573L18.0031 18.5751L17.9963 26.7246L19.1386 26.7085L19.2425 26.2006C20.7028 27.4855 21.6209 26.6056 21.6184 25.0663ZM25.9713 24.6456L24.928 24.6509C24.928 24.6908 24.9261 24.7363 24.9255 24.7863V25.344C24.9255 25.6424 24.6684 25.8854 24.3558 25.8854H24.1515C23.8383 25.8854 23.5813 25.6424 23.5813 25.344V25.2822V24.6683V23.8768H25.969V23.0155C25.969 22.3864 25.952 21.7573 25.8977 21.3975C25.7271 20.2589 24.06 20.0783 23.2174 20.6611C22.9529 20.8432 22.7513 21.0867 22.6333 21.4145C22.5149 21.7419 22.4562 22.1886 22.4562 22.7568V24.6503C22.4571 27.798 26.4464 27.3531 25.9713 24.6456ZM20.6222 14.3646C20.6935 14.5322 20.8048 14.6673 20.9567 14.7699C21.1054 14.87 21.2971 14.9211 21.5257 14.9211C21.7261 14.9211 21.9038 14.8691 22.058 14.7619C22.2125 14.6552 22.3428 14.4963 22.4486 14.2837L22.4222 14.8067H23.9721V8.48895H22.7518V13.406C22.7518 13.6718 22.5225 13.8898 22.2427 13.8898C21.965 13.8898 21.735 13.6718 21.735 13.406V8.48895H20.4617V12.75C20.4617 13.2929 20.4717 13.6548 20.4888 13.8385C20.5071 14.0208 20.5506 14.1955 20.6222 14.3646ZM15.9249 10.7965C15.9249 10.19 15.9778 9.71662 16.0823 9.37531C16.1875 9.03491 16.3777 8.76136 16.652 8.55546C16.9261 8.348 17.2772 8.24448 17.703 8.24448C18.0613 8.24448 18.3688 8.31215 18.6258 8.44417C18.8829 8.57711 19.0826 8.74929 19.22 8.96229C19.3613 9.17595 19.4561 9.39572 19.5074 9.62045C19.5597 9.84798 19.5849 10.1921 19.5849 10.6549V12.2528C19.5849 12.8389 19.5604 13.2699 19.513 13.5439C19.4661 13.8184 19.3649 14.0728 19.2081 14.3112C19.0533 14.5474 18.8533 14.7239 18.6107 14.8364C18.3662 14.9505 18.0865 15.0061 17.7697 15.0061C17.4168 15.0061 17.1187 14.9594 16.8739 14.8614C16.6281 14.7643 16.4377 14.6178 16.3025 14.4234C16.1651 14.2286 16.0693 13.9915 16.0116 13.7151C15.9529 13.4384 15.9251 13.0233 15.9251 12.4693L15.9249 10.7965ZM17.1384 13.3064C17.1384 13.6637 17.4167 13.9559 17.7551 13.9559C18.0935 13.9559 18.37 13.6641 18.37 13.3064V9.94292C18.37 9.58558 18.0935 9.29343 17.7551 9.29343C17.4167 9.29343 17.1384 9.58525 17.1384 9.94292V13.3064ZM12.8483 15.0045H14.3112L14.3125 10.159L16.0406 6.00801H14.441L13.5222 9.09176L12.5903 6H11.0077L12.8461 10.1618L12.8483 15.0045Z" fill="#CC1D1D"/>
</svg>
