<svg width="30" height="30" viewBox="0 0 30 30" fill="none" xmlns="http://www.w3.org/2000/svg">
<path d="M14.9269 14.721C18.4455 14.721 21.3074 11.8685 21.3074 8.3603C21.3074 4.85248 18.4455 2 14.9269 2C11.4082 2 8.54639 4.85248 8.54639 8.3603C8.54639 11.8685 11.4082 14.721 14.9269 14.721ZM14.9269 5.18002C16.6863 5.18002 18.1171 6.60644 18.1171 8.3603C18.1171 10.1142 16.6863 11.5408 14.9269 11.5408C13.1675 11.5408 11.7365 10.1142 11.7365 8.3603C11.7365 6.60644 13.1675 5.18002 14.9269 5.18002Z" fill="#F77C00"/>
<path d="M23.3874 14.5445C22.7637 13.9227 21.7554 13.9227 21.1319 14.5445C17.7119 17.9537 12.1448 17.9537 8.72335 14.5445C8.09985 13.9227 7.0915 13.9227 6.46778 14.5445C5.84407 15.1661 5.84407 16.1714 6.46778 16.7947C8.45209 18.7726 10.9675 19.9003 13.5613 20.1941L9.0136 24.7277C8.3901 25.3495 8.3901 26.3543 9.0136 26.9761C9.63742 27.598 10.6453 27.598 11.2691 26.9761L14.9269 23.33L18.5846 26.9761C18.8958 27.2862 19.3038 27.4423 19.7122 27.4423C20.1207 27.4423 20.5288 27.2862 20.8398 26.9761C21.4636 26.3543 21.4636 25.3494 20.8398 24.7277L16.2922 20.194C18.8859 19.9003 21.4014 18.7726 23.3857 16.7946C24.0095 16.1726 24.0095 15.1661 23.3874 14.5445Z" fill="#F77C00"/>
</svg>
