<svg width="40" height="40" viewBox="0 0 40 40" fill="none" xmlns="http://www.w3.org/2000/svg">
<path d="M20 5C11.7287 5 5 11.7287 5 20C5 22.8217 5.78404 25.561 7.27135 27.9396C6.67885 30.0154 5.60865 33.9419 5.59712 33.9829C5.54173 34.186 5.60115 34.4029 5.75288 34.5488C5.90462 34.6948 6.12385 34.7467 6.32346 34.6856L12.2692 32.8567C14.5983 34.2598 17.2654 35 20 35C28.2713 35 35 28.2713 35 20C35 11.7287 28.2713 5 20 5ZM20 33.8462C17.3929 33.8462 14.8533 33.1175 12.6552 31.7398C12.5623 31.6815 12.4556 31.6521 12.3488 31.6521C12.2917 31.6521 12.2346 31.6608 12.1792 31.6775L6.9875 33.2756C7.36885 31.8835 8.05423 29.3935 8.45173 28.0083C8.49788 27.8479 8.47192 27.6748 8.38135 27.5346C6.92404 25.2921 6.15385 22.6867 6.15385 20C6.15385 12.3656 12.3656 6.15385 20 6.15385C27.6344 6.15385 33.8462 12.3656 33.8462 20C33.8462 27.6344 27.6344 33.8462 20 33.8462Z" fill="#349B00"/>
<path fill-rule="evenodd" clip-rule="evenodd" d="M28.028 23.6271C27.6167 23.4018 25.5931 22.3127 25.2142 22.1591C24.8357 22.0057 24.5589 21.9266 24.2672 22.342C23.9752 22.7575 23.1443 23.6873 22.8915 23.9624C22.6387 24.2376 22.394 24.2656 21.9825 24.0403C21.5709 23.8151 20.2379 23.3254 18.686 21.8317C17.4784 20.6691 16.6827 19.255 16.4519 18.8233C16.2216 18.3911 16.4696 18.1914 16.6623 17.964C17.1326 17.4084 17.6045 16.8252 17.7526 16.5469C17.9009 16.2683 17.8388 16.0186 17.7407 15.8032C17.643 15.5879 16.872 13.4757 16.5502 12.616C16.2364 11.7793 15.8885 11.8801 15.6321 11.8591C15.3889 11.8392 15.1102 11.828 14.8313 11.8193C14.5527 11.8106 14.0964 11.9024 13.6999 12.315C13.3035 12.7274 12.1917 13.7189 12.1266 15.8051C12.0615 17.8912 13.4967 19.9533 13.6968 20.2427C13.897 20.5321 16.5025 24.8985 20.6389 26.8649C21.6227 27.3331 22.3932 27.6179 22.9944 27.8322C23.9859 28.186 24.8985 28.1689 25.6223 28.0823C26.4295 27.9856 28.1276 27.134 28.5071 26.155C28.8863 25.1758 28.9128 24.3273 28.8136 24.1471C28.7148 23.9671 28.4393 23.8524 28.028 23.6271Z" fill="#349B00"/>
</svg>
