<svg width="36" height="24" viewBox="0 0 36 24" fill="none" xmlns="http://www.w3.org/2000/svg">
<path d="M27.1875 0H2.81252C1.2616 0 0 1.34571 0 3.00002V21C0 22.6543 1.2616 24 2.81252 24H27.1875C28.7384 24 30 22.6543 30 21V3.00002C30 1.34571 28.7384 0 27.1875 0ZM27.1875 1.99999C27.3149 1.99999 27.436 2.02818 27.5468 2.07741L15 13.6768L2.45313 2.07741C2.56391 2.02824 2.68508 1.99999 2.81246 1.99999H27.1875ZM27.1875 21.9999H2.81252C2.29525 21.9999 1.87499 21.5517 1.87499 20.9999V4.19042L14.3857 15.7558C14.5624 15.9189 14.7812 16 15 16C15.2188 16 15.4376 15.919 15.6143 15.7558L28.125 4.19042V12.5952V21C28.1249 21.5517 27.7047 21.9999 27.1875 21.9999Z" fill="url(#paint0_linear)"/>
<path d="M25.2501 15.05C25.319 15.2188 25.3839 15.378 25.4464 15.5265C26.1446 14.164 27.0954 12.3756 28.1683 10.6333C29.4861 8.49308 31.0255 6.359 32.5418 5.19308C33.0201 4.82522 33.6266 4.74493 34.0979 4.89321C34.335 4.96779 34.5794 5.11458 34.732 5.36133C34.8956 5.62594 34.9121 5.93938 34.795 6.23771C34.637 6.64053 34.3749 7.08374 33.9705 7.55229C33.684 7.88428 33.2348 8.59008 32.6855 9.54891C32.1439 10.4943 31.5256 11.6484 30.9031 12.8474C29.6584 15.2446 28.4047 17.8062 27.7276 19.2044C27.4493 19.779 27.0582 20.176 26.5723 20.362C26.089 20.5469 25.5865 20.4946 25.1387 20.3174C24.2629 19.9708 23.4828 19.1097 23.0897 18.1624L23.0839 18.1478L20.7448 11.9696C20.6648 11.7584 20.7364 11.5198 20.9194 11.3874C21.204 11.1817 21.6623 11.0457 22.192 11.1539C22.73 11.2637 23.2991 11.6148 23.8376 12.3096C24.3659 12.9913 24.7462 13.8328 25.0554 14.5759C25.1241 14.7411 25.1887 14.8994 25.2501 15.05Z" fill="#349B00" stroke="white" stroke-linecap="round" stroke-linejoin="round"/>
<defs>
<linearGradient id="paint0_linear" x1="7.35294" y1="-5.64706" x2="35.2947" y2="0.703341" gradientUnits="userSpaceOnUse">
<stop stop-color="#FB912F"/>
<stop offset="1" stop-color="#DC5126"/>
</linearGradient>
</defs>
</svg>
