<svg width="27" height="28" viewBox="0 0 27 28" fill="none" xmlns="http://www.w3.org/2000/svg">
<circle cx="11.5" cy="12.5" r="8.5" fill="white" fill-opacity="0.25"/>
<path d="M23.8852 25.2968L17.7668 18.8782C19.3274 17.2994 20.2942 15.1229 20.2942 12.7226C20.2942 7.9127 16.4154 4 11.6471 4C6.87885 4 3 7.9127 3 12.7226C3 17.5325 6.87885 21.4452 11.6471 21.4452C13.7401 21.4452 15.661 20.6904 17.1582 19.4381L23.2915 25.8725C23.3722 25.9576 23.4801 26 23.5884 26C23.6913 26 23.7938 25.9614 23.8737 25.8841C24.0376 25.725 24.0425 25.4621 23.8852 25.2968ZM11.6471 20.6144C7.33303 20.6144 3.82353 17.0743 3.82353 12.7226C3.82353 8.37084 7.33303 4.83072 11.6471 4.83072C15.9612 4.83072 19.4707 8.37084 19.4707 12.7226C19.4707 17.0743 15.9608 20.6144 11.6471 20.6144Z" fill="white"/>
<path d="M23.8852 25.2968L17.7668 18.8782C19.3274 17.2994 20.2942 15.1229 20.2942 12.7226C20.2942 7.9127 16.4154 4 11.6471 4C6.87885 4 3 7.9127 3 12.7226C3 17.5325 6.87885 21.4452 11.6471 21.4452C13.7401 21.4452 15.661 20.6904 17.1582 19.4381L23.2915 25.8725C23.3722 25.9576 23.4801 26 23.5884 26C23.6913 26 23.7938 25.9614 23.8737 25.8841C24.0376 25.725 24.0425 25.4621 23.8852 25.2968ZM11.6471 20.6144C7.33303 20.6144 3.82353 17.0743 3.82353 12.7226C3.82353 8.37084 7.33303 4.83072 11.6471 4.83072C15.9612 4.83072 19.4707 8.37084 19.4707 12.7226C19.4707 17.0743 15.9608 20.6144 11.6471 20.6144Z" stroke="white"/>
</svg>
