<svg width="118" height="94" viewBox="0 0 118 94" fill="none" xmlns="http://www.w3.org/2000/svg">
<g clip-path="url(#clip0)">
<path d="M31.112 19.3435L28.2861 17.7305C28.0932 17.6203 27.8691 17.5776 27.6491 17.609L25.2279 17.9545C24.7352 18.0248 24.3691 18.4468 24.3691 18.9445V85.8434C24.3691 86.5414 25.0662 87.0247 25.7199 86.7798L28.0263 85.9159C28.3272 85.8031 28.664 85.8419 28.9314 86.02L31.0939 87.4601C31.4089 87.6699 31.8153 87.6839 32.1439 87.4963L34.6909 86.0424C35.0196 85.8548 35.426 85.8688 35.7409 86.0786L37.8718 87.4976C38.1567 87.6873 38.5189 87.7181 38.8318 87.5792L42.4803 85.9594C42.7932 85.8205 43.1554 85.8513 43.4404 86.0411L45.5712 87.4601C45.8862 87.6699 46.2926 87.6839 46.6212 87.4963L49.2285 86.008C49.525 85.8388 49.8872 85.8324 50.1894 85.9912L53.1284 87.5353C53.4431 87.7007 53.8219 87.6865 54.1233 87.4981L56.4677 86.0333C56.763 85.8489 57.1329 85.8312 57.4444 85.9868L60.6011 87.5634C60.8999 87.7127 61.2536 87.7029 61.5437 87.5373L64.143 86.0536C64.4817 85.8602 64.902 85.8814 65.2195 86.108L67.6744 87.8596C68.0516 88.1287 68.5644 88.1034 68.9133 87.7985L72.1054 85.0084C72.3268 84.8149 72.4518 84.5339 72.4472 84.24L71.4485 19.3937C71.4363 18.6022 70.5531 18.138 69.8943 18.5767L68.8319 19.2843C68.5169 19.494 68.1105 19.508 67.7818 19.3204L65.1944 17.8435C64.8872 17.6681 64.5102 17.6681 64.203 17.8435L61.5751 19.3435C61.2679 19.5189 60.8909 19.5189 60.5836 19.3435L57.9425 17.8359C57.6424 17.6647 57.2753 17.6604 56.9714 17.8246L54.1053 19.3732C53.8123 19.5315 53.4597 19.5336 53.1648 19.3787L50.1894 17.8154C49.8872 17.6566 49.525 17.6629 49.2285 17.8322L46.6212 19.3204C46.2926 19.508 45.8862 19.494 45.5712 19.2843L43.4653 17.8819C43.1669 17.6831 42.7849 17.6594 42.4642 17.8196L39.3247 19.3876C39.0258 19.5369 38.6722 19.5271 38.3821 19.3615L35.7228 17.8435C35.4156 17.6681 35.0386 17.6681 34.7314 17.8435L32.1035 19.3435C31.7963 19.5189 31.4193 19.5189 31.112 19.3435Z" stroke="#4A4B4F" stroke-width="3"/>
<path d="M65.5409 44.6875H48.8492C48.0415 44.6875 47.3862 45.3415 47.3862 46.1491C47.3862 46.9566 48.0413 47.6108 48.8492 47.6108H65.5409C66.3486 47.6108 67.0038 46.9568 67.0038 46.1491C67.0038 45.3415 66.3486 44.6875 65.5409 44.6875Z" fill="#4A4B4F" stroke="#4A4B4F" stroke-width="0.5"/>
<path d="M65.5409 71.4497H48.8492C48.0415 71.4497 47.3862 72.1037 47.3862 72.9113C47.3862 73.719 48.0413 74.373 48.8492 74.373H65.5409C66.3486 74.373 67.0038 73.719 67.0038 72.9113C67.0038 72.1037 66.3486 71.4497 65.5409 71.4497Z" fill="#4A4B4F" stroke="#4A4B4F" stroke-width="0.5"/>
<path d="M40.2667 43.1779L40.2666 43.1777C39.6952 42.6074 38.7694 42.6074 38.1979 43.1777L38.1978 43.1778L35.3154 46.0573L34.3723 45.1151L34.3723 45.115C33.8009 44.5447 32.8751 44.5447 32.3036 45.115L32.3035 45.1151C31.7322 45.686 31.7322 46.6114 32.3034 47.1824L32.3035 47.1824L34.2809 49.1577L34.2809 49.1577C34.5666 49.4429 34.9415 49.5855 35.3152 49.5855C35.6889 49.5855 36.0638 49.4429 36.3495 49.1577L36.3495 49.1577L40.2663 45.2452C40.2663 45.2452 40.2663 45.2452 40.2663 45.2451C40.838 44.6742 40.838 43.7489 40.2667 43.1779Z" fill="#4A4B4F" stroke="#4A4B4F" stroke-width="0.5"/>
<path d="M65.5409 58.116H48.8492C48.0415 58.116 47.3862 58.7699 47.3862 59.5776C47.3862 60.3853 48.0413 61.0392 48.8492 61.0392H65.5409C66.3486 61.0392 67.0038 60.3853 67.0038 59.5776C67.0038 58.7699 66.3486 58.116 65.5409 58.116Z" fill="#4A4B4F" stroke="#4A4B4F" stroke-width="0.5"/>
<path d="M40.2667 56.7442L40.2666 56.7442C39.6952 56.1738 38.7694 56.1739 38.1979 56.7441L38.1978 56.7442L35.3154 59.6237L34.3723 58.6815L34.3723 58.6815C33.8009 58.1111 32.8751 58.1112 32.3036 58.6814L32.3035 58.6815C31.7322 59.2524 31.7322 60.1778 32.3034 60.7488L32.3035 60.7489L34.2809 62.7241L34.2809 62.7241C34.5666 63.0093 34.9415 63.152 35.3152 63.152C35.6889 63.152 36.0638 63.0093 36.3495 62.7241L36.3495 62.7241L40.2663 58.8116C40.838 58.2405 40.838 57.3151 40.2667 56.7442Z" fill="#4A4B4F" stroke="#4A4B4F" stroke-width="0.5"/>
<path d="M38.1979 70.1777L38.1978 70.1778L35.3154 73.0573L34.3723 72.1151L34.3723 72.115C33.8009 71.5447 32.8751 71.5447 32.3036 72.115L32.3035 72.1151C31.7322 72.686 31.7322 73.6114 32.3034 74.1824L32.3035 74.1824L34.2809 76.1577L34.2809 76.1577C34.5666 76.4429 34.9415 76.5855 35.3152 76.5855C35.6889 76.5855 36.0638 76.4429 36.3495 76.1577L36.3495 76.1577L40.2663 72.2451L40.2663 72.2451C40.8377 71.6742 40.8376 70.7489 40.2664 70.1779L40.2663 70.1778C39.6953 69.6074 38.7692 69.6075 38.1979 70.1777Z" fill="#4A4B4F" stroke="#4A4B4F" stroke-width="0.5"/>
<path d="M77.1079 52.1647V14.5C77.1079 13.3954 76.2124 12.5 75.1079 12.5H21.7158C20.6113 12.5 19.7158 13.3954 19.7158 14.5V90.4504C19.7158 91.555 20.6113 92.4504 21.7158 92.4504H75.1079C76.2124 92.4504 77.1079 91.555 77.1079 90.4504V58.3625" stroke="#4A4B4F" stroke-width="3" stroke-linecap="round"/>
<g clip-path="url(#clip1)" filter="url(#filter0_d)">
<g filter="url(#filter1_b)">
<path d="M33.665 7.03189L6.24747 40.8424L6.5429 43.4833L27.737 61.6178L33.2657 63.2289L61.025 28.489L53.0865 9.32061L33.665 7.03189Z" fill="url(#paint0_linear)" fill-opacity="0.6"/>
</g>
<path d="M61.8567 9.47078C61.1573 8.51715 59.9161 7.50268 58.0753 7.48059L52.7347 7.48063C52.4038 7.36603 52.059 7.28248 51.7033 7.2347L35.3887 5.08501C33.5562 4.83843 31.7006 5.58239 30.5465 7.02673L5.35108 38.5049C3.529 40.7853 3.9024 44.1233 6.18345 45.9459L28.2478 63.573C30.529 65.3954 33.8674 65.0229 35.6897 62.7424L60.8332 31.2226C61.9873 29.7783 62.3035 27.8044 61.6583 26.0716L55.9605 10.6355C55.8352 10.2993 55.6777 9.98133 55.4929 9.684C55.4929 9.684 57.4712 9.17082 58.6835 9.47078C59.8525 9.76003 61 11 61 11C61.5 11 62 11 62.5 11C62.5185 10.7764 62.385 10.1911 61.8567 9.47078ZM58.3499 27.3024C58.565 27.88 58.4596 28.5378 58.0749 29.0194L32.9314 60.539C32.324 61.2992 31.2111 61.4234 30.4507 60.8159L8.38644 43.1886C7.62602 42.5811 7.50155 41.4684 8.10898 40.7082L33.3045 9.23012C33.5991 8.8614 34.0309 8.62961 34.4914 8.57821C34.6322 8.56249 34.7757 8.56364 34.9186 8.58285L50.2426 10.5992L46.4909 15.2944C44.4311 14.5813 42.0536 15.1926 40.6177 16.9895C38.7954 19.2701 39.1688 22.6079 41.4501 24.4305C42.5905 25.3417 43.9956 25.7042 45.3431 25.5538C46.6905 25.4034 47.9807 24.7402 48.8917 23.5998C50.3279 21.8026 50.3993 19.3492 49.2488 17.4978L53.0005 12.8026L58.3499 27.3024ZM46.1338 21.3965C45.5265 22.1566 44.4137 22.2809 43.6532 21.6734C42.8929 21.066 42.7684 19.9532 43.3758 19.1931C43.6795 18.813 44.1094 18.592 44.5587 18.5419C45.0077 18.4918 45.4761 18.6126 45.8561 18.9162C46.6165 19.5236 46.7411 20.6365 46.1338 21.3965Z" fill="url(#paint1_linear)"/>
<path d="M32.9095 24.2727C30.6283 22.4503 27.2899 22.823 25.4676 25.1034C23.6455 27.3838 24.0189 30.7218 26.3 32.5443C28.5811 34.3667 31.9196 33.9941 33.7418 31.7137C35.5641 29.4331 35.1908 26.0953 32.9095 24.2727ZM30.9839 29.5102C30.3765 30.2703 29.2636 30.3946 28.5033 29.787C27.743 29.1795 27.6183 28.0668 28.2258 27.3068C28.8332 26.5467 29.9459 26.4224 30.7065 27.0299C31.4668 27.6373 31.5912 28.75 30.9839 29.5102Z" fill="url(#paint2_linear)"/>
<path d="M37.3323 41.3577C35.0458 39.531 31.7173 39.9023 29.8906 42.1884C28.0683 44.4689 28.4416 47.8068 30.7229 49.6293C33.0095 51.456 36.338 51.0848 38.1647 48.7987C39.987 46.5181 39.6136 43.1802 37.3323 41.3577ZM35.4066 46.5953C34.798 47.3571 33.6882 47.4811 32.9261 46.8722C32.1658 46.2648 32.0413 45.1519 32.6486 44.3919C33.2574 43.63 34.3671 43.506 35.1292 44.115C35.8895 44.7224 36.0139 45.835 35.4066 46.5953Z" fill="url(#paint3_linear)"/>
<path d="M44.5619 34.0765C44.3472 33.1257 43.4022 32.5288 42.4515 32.7432L20.4037 37.7154C19.4529 37.9299 18.856 38.8744 19.0707 39.8252C19.2707 40.711 20.1043 41.2897 20.9864 41.1912C21.0511 41.184 21.1162 41.1731 21.1811 41.1585L43.229 36.1863C44.1798 35.9717 44.7767 35.0272 44.5619 34.0765Z" fill="url(#paint4_linear)"/>
</g>
</g>
<defs>
<filter id="filter0_d" x="-5" y="-4.22192" width="90.4495" height="86.0022" filterUnits="userSpaceOnUse" color-interpolation-filters="sRGB">
<feFlood flood-opacity="0" result="BackgroundImageFix"/>
<feColorMatrix in="SourceAlpha" type="matrix" values="0 0 0 0 0 0 0 0 0 0 0 0 0 0 0 0 0 0 127 0"/>
<feOffset dy="4"/>
<feGaussianBlur stdDeviation="2.5"/>
<feColorMatrix type="matrix" values="0 0 0 0 0 0 0 0 0 0 0 0 0 0 0 0 0 0 0.25 0"/>
<feBlend mode="normal" in2="BackgroundImageFix" result="effect1_dropShadow"/>
<feBlend mode="normal" in="SourceGraphic" in2="effect1_dropShadow" result="shape"/>
</filter>
<filter id="filter1_b" x="3.24756" y="4.03198" width="60.7775" height="62.197" filterUnits="userSpaceOnUse" color-interpolation-filters="sRGB">
<feFlood flood-opacity="0" result="BackgroundImageFix"/>
<feGaussianBlur in="BackgroundImage" stdDeviation="1.5"/>
<feComposite in2="SourceAlpha" operator="in" result="effect1_backgroundBlur"/>
<feBlend mode="normal" in="SourceGraphic" in2="effect1_backgroundBlur" result="shape"/>
</filter>
<linearGradient id="paint0_linear" x1="12.8997" y1="12.1145" x2="118.784" y2="98.9313" gradientUnits="userSpaceOnUse">
<stop stop-color="white"/>
<stop offset="1" stop-color="white" stop-opacity="0"/>
</linearGradient>
<linearGradient id="paint1_linear" x1="13.8878" y1="-6.64999" x2="72.8271" y2="-2.19007" gradientUnits="userSpaceOnUse">
<stop stop-color="#FB912F"/>
<stop offset="1" stop-color="#DC5126"/>
</linearGradient>
<linearGradient id="paint2_linear" x1="26.0583" y1="20.9739" x2="36.2353" y2="21.6719" gradientUnits="userSpaceOnUse">
<stop stop-color="#FB912F"/>
<stop offset="1" stop-color="#DC5126"/>
</linearGradient>
<linearGradient id="paint3_linear" x1="30.4805" y1="38.0535" x2="40.6578" y2="38.7503" gradientUnits="userSpaceOnUse">
<stop stop-color="#FB912F"/>
<stop offset="1" stop-color="#DC5126"/>
</linearGradient>
<linearGradient id="paint4_linear" x1="24.7386" y1="33.2827" x2="41.7802" y2="43.8205" gradientUnits="userSpaceOnUse">
<stop stop-color="#FB912F"/>
<stop offset="1" stop-color="#DC5126"/>
</linearGradient>
<clipPath id="clip0">
<rect width="118" height="94" fill="white"/>
</clipPath>
<clipPath id="clip1">
<rect width="73.3099" height="68.2932" fill="white" transform="matrix(0.993828 -0.110931 0.111169 0.993801 0 4.9104)"/>
</clipPath>
</defs>
</svg>
