<svg width="118" height="94" viewBox="0 0 118 94" fill="none" xmlns="http://www.w3.org/2000/svg">
<g clip-path="url(#clip0)">
<path d="M94.2183 67.9444V84.1116H78.681L79.5849 83.171L79.5885 83.1673L79.5887 83.1671C79.5933 83.1627 79.5966 83.159 79.5983 83.1572L79.5986 83.1568L79.599 83.1564L79.6001 83.1552L79.6008 83.1544L94.2183 67.9444ZM36.2004 66.4015L60.6271 40.984L60.6273 40.9843L60.6353 40.976L76.3487 24.6251L84.2264 32.8222L44.0777 74.5986L36.2004 66.4015ZM33.085 65.3366L33.0849 65.3365L33.0788 65.3429L25.7817 72.9363V54.9764L49.0771 31.1176L57.5237 39.9065L33.1051 65.3155L33.2133 65.4194L33.1051 65.3155L33.1048 65.3158L33.1039 65.3168L33.1001 65.3205C33.0992 65.3214 33.0982 65.3225 33.097 65.3238C33.0947 65.3261 33.0918 65.3291 33.0888 65.3326L33.0869 65.3346L33.085 65.3366ZM26.1042 28.1204L26.2123 28.2243L26.1042 28.1204C26.0713 28.1546 26.0412 28.1891 26.0124 28.2248L25.7817 28.4508V12.8884H41.6592L26.2748 27.968C26.2147 28.0137 26.1577 28.0647 26.1042 28.1204ZM24.3159 87.15H95.6841C96.4994 87.15 97.15 86.4643 97.15 85.6308V11.3692C97.15 10.5357 96.4994 9.85 95.6841 9.85H24.3159C23.5006 9.85 22.85 10.5357 22.85 11.3692V85.6308C22.85 86.4643 23.5006 87.15 24.3159 87.15ZM76.4849 82.0916L74.5436 84.1116H58.1976L68.3118 73.5873L76.4849 82.0916ZM76.7917 60.4579L54.0597 84.1116H39.0737L45.1164 77.8239L69.2988 52.6612L76.7917 60.4579ZM42.009 76.7517L34.9358 84.1116H25.7817V77.2425L34.1312 68.5546L42.009 76.7517ZM94.2183 63.6388L78.5536 79.9385L70.3805 71.4342L79.8992 61.5302L94.2183 46.6306V63.6388ZM94.2183 42.3249L78.8604 58.3048L71.3674 50.5081L94.2183 26.7309V42.3249ZM27.1197 31.321L35.8436 40.3991L25.7817 50.7044V32.6321L27.1197 31.321ZM62.6159 12.9794L37.9292 38.2631L29.2504 29.2325L45.8338 12.9794H62.6159ZM83.4901 12.8884L59.5929 37.754L51.1622 28.9815L66.8755 12.8884H83.4901ZM94.2183 22.4252L86.2951 30.6696L78.4174 22.4725L87.628 12.8884H94.2183V22.4252Z" fill="#4A4B4F" stroke="#4A4B4F" stroke-width="0.3"/>
<g filter="url(#filter0_d)">
<g filter="url(#filter1_b)">
<path d="M61.5084 3.62061H9.88547L8.78711 5.29397V16.4497L9.88547 19.2386L21.4183 18.6809L10.9838 26.4899L19.2215 39.8768L28.5576 35.4145L24.7133 44.3391L37.8937 52.1481L43.9347 44.8969V54.3792H61.5084V29.5516V3.62061Z" fill="url(#paint0_linear)" fill-opacity="0.6"/>
</g>
<path d="M40.4288 1.41382H8.68847C8.13619 1.41382 7.68848 1.86153 7.68848 2.41382V17.193C7.68848 17.7577 8.15572 18.2104 8.72012 18.1925L22.0404 17.7708M22.0404 17.7708L40.4288 7.77487M22.0404 17.7708L10.3238 24.9775C9.85749 25.2643 9.7085 25.8728 9.98957 26.3426L17.9816 39.7019C18.248 40.1471 18.8105 40.3147 19.2771 40.0878L29.6648 35.0365M29.6648 35.0365L40.4288 15.0446M29.6648 35.0365L24.7349 44.193C24.4818 44.6629 24.6425 45.2488 25.0999 45.5239L37.8119 53.1704C38.2717 53.4469 38.8677 53.3113 39.1627 52.8631L44.9138 44.1238M44.9138 44.1238C44.9138 44.1238 44.9138 16.1425 44.9138 2.40598C44.9138 1.85369 45.3615 1.41382 45.9138 1.41382H60.5081C61.0604 1.41382 61.5081 1.86153 61.5081 2.41382V54.4828C61.5081 55.0351 61.0604 55.4828 60.5081 55.4828H45.9137C45.3615 55.4828 44.9138 55.0351 44.9138 54.4828V44.1238ZM48.9502 15.499H58.3687" stroke="url(#paint1_linear)" stroke-width="3" stroke-linecap="round"/>
</g>
</g>
<defs>
<filter id="filter0_d" x="-5" y="-4" width="77" height="74" filterUnits="userSpaceOnUse" color-interpolation-filters="sRGB">
<feFlood flood-opacity="0" result="BackgroundImageFix"/>
<feColorMatrix in="SourceAlpha" type="matrix" values="0 0 0 0 0 0 0 0 0 0 0 0 0 0 0 0 0 0 127 0"/>
<feOffset dy="4"/>
<feGaussianBlur stdDeviation="2.5"/>
<feColorMatrix type="matrix" values="0 0 0 0 0 0 0 0 0 0 0 0 0 0 0 0 0 0 0.25 0"/>
<feBlend mode="normal" in2="BackgroundImageFix" result="effect1_dropShadow"/>
<feBlend mode="normal" in="SourceGraphic" in2="effect1_dropShadow" result="shape"/>
</filter>
<filter id="filter1_b" x="4.78711" y="-0.379395" width="60.7213" height="58.7586" filterUnits="userSpaceOnUse" color-interpolation-filters="sRGB">
<feFlood flood-opacity="0" result="BackgroundImageFix"/>
<feGaussianBlur in="BackgroundImage" stdDeviation="2"/>
<feComposite in2="SourceAlpha" operator="in" result="effect1_backgroundBlur"/>
<feBlend mode="normal" in="SourceGraphic" in2="effect1_backgroundBlur" result="shape"/>
</filter>
<linearGradient id="paint0_linear" x1="17.663" y1="6.11985" x2="104.605" y2="94.8703" gradientUnits="userSpaceOnUse">
<stop stop-color="white"/>
<stop offset="1" stop-color="white" stop-opacity="0"/>
</linearGradient>
<linearGradient id="paint1_linear" x1="20.8796" y1="-11.3083" x2="71.9241" y2="-2.07026" gradientUnits="userSpaceOnUse">
<stop stop-color="#FB912F"/>
<stop offset="1" stop-color="#DC5126"/>
</linearGradient>
<clipPath id="clip0">
<rect width="118" height="94" fill="white"/>
</clipPath>
</defs>
</svg>
