<svg width="195" height="195" viewBox="0 0 195 195" fill="none" xmlns="http://www.w3.org/2000/svg">
<g clip-path="url(#clip0)">
<path d="M62.2053 151.674C50.9618 151.674 41.8477 160.789 41.8477 172.032C41.8477 183.275 50.9623 192.39 62.2053 192.39C73.4488 192.39 82.5629 183.275 82.5629 172.032C82.5634 160.789 73.4488 151.674 62.2053 151.674ZM62.2053 183.342C55.959 183.342 50.8956 178.279 50.8956 172.032C50.8956 165.786 55.959 160.723 62.2053 160.723C68.4516 160.723 73.515 165.786 73.515 172.032C73.5154 178.279 68.4516 183.342 62.2053 183.342Z" fill="url(#paint0_linear)"/>
<path d="M148.16 151.674C136.917 151.674 127.803 160.789 127.803 172.032C127.803 183.275 136.917 192.39 148.16 192.39C159.403 192.39 168.518 183.275 168.518 172.032C168.518 160.789 159.404 151.674 148.16 151.674ZM148.16 183.342C141.914 183.342 136.851 178.279 136.851 172.032C136.851 165.786 141.914 160.723 148.16 160.723C154.407 160.723 159.47 165.786 159.47 172.032C159.471 178.279 154.407 183.342 148.16 183.342Z" fill="url(#paint1_linear)"/>
<path d="M194.078 32.9208C193.136 31.8916 191.847 31.2474 190.459 31.111L43.2039 29.0752L39.1324 16.6342C36.2641 8.31754 28.476 2.70295 19.6792 2.60986H4.52397C2.02537 2.60986 0 4.63524 0 7.13383C0 9.63243 2.02537 11.6578 4.52397 11.6578H19.6792C24.598 11.7665 28.9293 14.9249 30.5369 19.5749L59.264 106.209L57.0023 111.411C54.4794 117.917 55.2371 125.239 59.038 131.09C62.8026 136.837 69.1359 140.384 76.003 140.591H163.994C166.493 140.591 168.518 138.565 168.518 136.067C168.518 133.568 166.493 131.543 163.994 131.543H76.0026C72.1246 131.446 68.5549 129.406 66.5022 126.114C64.4725 122.862 64.0556 118.857 65.3713 115.256L67.1811 111.185L162.41 101.232C172.871 100.08 181.475 92.4718 183.899 82.2311L194.757 36.7654C195.246 35.4562 194.987 33.9837 194.078 32.9208ZM175.077 80.1958C173.609 86.788 168.012 91.6505 161.28 92.1844L67.1811 101.911L46.1446 38.1232L184.804 40.1589L175.077 80.1958Z" fill="url(#paint2_linear)"/>
</g>
<defs>
<linearGradient id="paint0_linear" x1="51.8269" y1="142.094" x2="90.4314" y2="149.113" gradientUnits="userSpaceOnUse">
<stop stop-color="#FB912F"/>
<stop offset="1" stop-color="#DC5126"/>
</linearGradient>
<linearGradient id="paint1_linear" x1="137.782" y1="142.094" x2="176.386" y2="149.113" gradientUnits="userSpaceOnUse">
<stop stop-color="#FB912F"/>
<stop offset="1" stop-color="#DC5126"/>
</linearGradient>
<linearGradient id="paint2_linear" x1="47.7942" y1="-29.8562" x2="226.967" y2="16.1829" gradientUnits="userSpaceOnUse">
<stop stop-color="#FB912F"/>
<stop offset="1" stop-color="#DC5126"/>
</linearGradient>
<clipPath id="clip0">
<rect width="195" height="195" fill="white"/>
</clipPath>
</defs>
</svg>
