<svg width="30" height="30" viewBox="0 0 30 30" fill="none" xmlns="http://www.w3.org/2000/svg">
<path d="M14.4094 6C13.8635 6 13.8635 6.79077 14.4094 6.79736C18.6444 6.82768 22.1322 9.57166 22.1705 14.6049C22.1705 15.1361 23.007 15.1295 23 14.5983H22.9985C22.9532 9.17495 19.1449 6.03031 14.4094 6Z" fill="#6F3FAA"/>
<path d="M20.1801 13.6015C20.1675 14.1173 20.9913 14.1419 20.9983 13.6196C21.0668 10.6789 19.1101 8.25654 15.4331 8.00122C14.8946 7.96493 14.8387 8.74904 15.3758 8.78533C18.5646 9.00955 20.2444 11.0262 20.1801 13.6015Z" fill="#6F3FAA"/>
<path d="M18.9489 17.3272C18.3136 16.9478 17.6668 17.1839 17.3993 17.5567L16.8399 18.3037C16.5557 18.6832 16.0246 18.6327 16.0246 18.6327C12.1487 17.5753 11.1122 13.3908 11.1122 13.3908C11.1122 13.3908 11.0646 12.8242 11.4195 12.5204L12.1191 11.9234C12.4689 11.6368 12.6901 10.9469 12.3338 10.2689C11.3822 8.49507 10.7431 7.88344 10.4177 7.41377C10.0757 6.97197 9.56129 6.87246 9.02633 7.17098H9.01475C7.90239 7.84231 6.68458 9.09874 7.07423 10.3923C7.73907 11.7562 8.96074 16.104 12.8547 19.389C14.6846 20.9426 17.5806 22.5347 18.81 22.9022L18.8216 22.9208C20.0329 23.3374 21.2109 22.0319 21.8397 20.8497V20.8404C22.1188 20.2686 22.0262 19.7273 21.6185 19.3731C20.8958 18.646 19.8053 17.8433 18.9489 17.3272Z" fill="#6F3FAA"/>
<path d="M16.3527 10.7317C17.5863 10.7993 18.1844 11.4058 18.2486 12.6513C18.2717 13.1382 19.0226 13.1044 18.9995 12.6175C18.9173 10.9914 18.0163 10.0853 16.3938 10.0008C15.8996 9.97299 15.8534 10.7039 16.3527 10.7317Z" fill="#6F3FAA"/>
<path d="M15 0C6.72865 0 0 6.72865 0 15C0 17.8217 0.784038 20.561 2.27135 22.9396C1.67885 25.0154 0.608654 28.9419 0.597115 28.9829C0.541731 29.186 0.601154 29.4029 0.752885 29.5488C0.904615 29.6948 1.12385 29.7467 1.32346 29.6856L7.26923 27.8567C9.59827 29.2598 12.2654 30 15 30C23.2713 30 30 23.2713 30 15C30 6.72865 23.2713 0 15 0ZM15 28.8462C12.3929 28.8462 9.85327 28.1175 7.65519 26.7398C7.56231 26.6815 7.45558 26.6521 7.34885 26.6521C7.29173 26.6521 7.23462 26.6608 7.17923 26.6775L1.9875 28.2756C2.36885 26.8835 3.05423 24.3935 3.45173 23.0083C3.49788 22.8479 3.47192 22.6748 3.38135 22.5346C1.92404 20.2921 1.15385 17.6867 1.15385 15C1.15385 7.36558 7.36558 1.15385 15 1.15385C22.6344 1.15385 28.8462 7.36558 28.8462 15C28.8462 22.6344 22.6344 28.8462 15 28.8462Z" fill="#6F3FAA"/>
</svg>
