<svg width="30" height="30" viewBox="0 0 30 30" fill="none" xmlns="http://www.w3.org/2000/svg">
<path d="M15 0C6.72865 0 0 6.72865 0 15C0 17.8217 0.784038 20.561 2.27135 22.9396C1.67885 25.0154 0.608654 28.9419 0.597115 28.9829C0.541731 29.186 0.601154 29.4029 0.752885 29.5488C0.904615 29.6948 1.12385 29.7467 1.32346 29.6856L7.26923 27.8567C9.59827 29.2598 12.2654 30 15 30C23.2713 30 30 23.2713 30 15C30 6.72865 23.2713 0 15 0ZM15 28.8462C12.3929 28.8462 9.85327 28.1175 7.65519 26.7398C7.56231 26.6815 7.45558 26.6521 7.34885 26.6521C7.29173 26.6521 7.23462 26.6608 7.17923 26.6775L1.9875 28.2756C2.36885 26.8835 3.05423 24.3935 3.45173 23.0083C3.49788 22.8479 3.47192 22.6748 3.38135 22.5346C1.92404 20.2921 1.15385 17.6867 1.15385 15C1.15385 7.36558 7.36558 1.15385 15 1.15385C22.6344 1.15385 28.8462 7.36558 28.8462 15C28.8462 22.6344 22.6344 28.8462 15 28.8462Z" fill="#349B00"/>
<path fill-rule="evenodd" clip-rule="evenodd" d="M21.4 17.978C21.0269 17.7919 19.1918 16.8936 18.8496 16.7695C18.5078 16.6455 18.2586 16.5838 18.0101 16.9555C17.7611 17.3272 17.046 18.164 16.8282 18.4117C16.6103 18.6597 16.3928 18.6908 16.0195 18.5048C15.6462 18.3189 14.4437 17.9265 13.018 16.6611C11.9086 15.6761 11.1596 14.4598 10.9417 14.0881C10.7242 13.716 10.9399 13.5344 11.1055 13.33C11.5095 12.8307 11.9141 12.3072 12.0385 12.0594C12.163 11.8115 12.1006 11.5945 12.0072 11.4087C11.9141 11.2228 11.1676 9.39453 10.8567 8.65057C10.5535 7.92657 10.2461 8.02435 10.0168 8.013C9.79935 8.0022 9.55041 8 9.30148 8C9.05273 8 8.64833 8.09283 8.30612 8.4649C7.96409 8.83679 7 9.73529 7 11.5636C7 13.3919 8.33739 15.1581 8.52395 15.4061C8.71052 15.654 11.1559 19.4058 14.8998 21.0146C15.7903 21.3976 16.4854 21.626 17.0276 21.7972C17.9218 22.0799 18.7352 22.04 19.3784 21.9444C20.0956 21.8376 21.5864 21.0457 21.8977 20.1782C22.2086 19.3104 22.2086 18.5668 22.1152 18.4117C22.0221 18.2568 21.7731 18.164 21.4 17.978Z" fill="#349B00"/>
</svg>
